<?xml version="1.0" encoding="UTF-8" standalone="no"?>
<!DOCTYPE svg PUBLIC "-//W3C//DTD SVG 1.1//EN"
"http://www.w3.org/Graphics/SVG/1.1/DTD/svg11.dtd">
<svg viewBox="0 0 935 1210" version="1.1" xmlns="http://www.w3.org/2000/svg" xmlns:xlink="http://www.w3.org/1999/xlink">
<defs>
<style type="text/css"><![CDATA[
.g2_1{
}
.g1_1{
fill: none;
stroke: #000000;
stroke-width: 1;
stroke-linecap: butt;
stroke-linejoin: miter;
}
]]></style>
</defs>
<image x="55" y="55" width="341" height="144" xlink:href="img/1.png" />
<path d="M137.5,278.5l256,0" class="g1_1" />
<path d="M616.5,278.5l163,0" class="g1_1" />
<path d="M139.5,314.5l254,0" class="g1_1" />
<path d="M108.5,350.5l285,0" class="g1_1" />
<path d="M157.5,387.5l236,0" class="g1_1" />
<path fill-rule="evenodd" d="M53,462l3,0l0,-2l-3,0l0,2Z" class="g2_1" />
<path fill-rule="evenodd" d="M53,462l3,0l0,-2l-3,0l0,2Z" class="g2_1" />
<path fill-rule="evenodd" d="M56,462l47,0l0,-2l-47,0l0,2Z" class="g2_1" />
<path fill-rule="evenodd" d="M103,462l2,0l0,-2l-2,0l0,2Z" class="g2_1" />
<path fill-rule="evenodd" d="M105,462l53,0l0,-2l-53,0l0,2Z" class="g2_1" />
<path fill-rule="evenodd" d="M158,462l2,0l0,-2l-2,0l0,2Z" class="g2_1" />
<path fill-rule="evenodd" d="M160,462l122,0l0,-2l-122,0l0,2Z" class="g2_1" />
<path fill-rule="evenodd" d="M282,462l2,0l0,-2l-2,0l0,2Z" class="g2_1" />
<path fill-rule="evenodd" d="M284,462l71,0l0,-2l-71,0l0,2Z" class="g2_1" />
<path fill-rule="evenodd" d="M355,462l2,0l0,-2l-2,0l0,2Z" class="g2_1" />
<path fill-rule="evenodd" d="M357,462l379,0l0,-2l-379,0l0,2Z" class="g2_1" />
<path fill-rule="evenodd" d="M736,462l2,0l0,-2l-2,0l0,2Z" class="g2_1" />
<path fill-rule="evenodd" d="M738,462l77,0l0,-2l-77,0l0,2Z" class="g2_1" />
<path fill-rule="evenodd" d="M815,462l2,0l0,-2l-2,0l0,2Z" class="g2_1" />
<path fill-rule="evenodd" d="M817,462l62,0l0,-2l-62,0l0,2Z" class="g2_1" />
<path fill-rule="evenodd" d="M879,462l2,0l0,-2l-2,0l0,2Z" class="g2_1" />
<path fill-rule="evenodd" d="M879,462l2,0l0,-2l-2,0l0,2Z" class="g2_1" />
<path fill-rule="evenodd" d="M53,498l3,0l0,-36l-3,0l0,36Z" class="g2_1" />
<path d="M103.5,498.5l0,-36" class="g1_1" />
<path d="M158.5,498.5l0,-36" class="g1_1" />
<path d="M282.5,498.5l0,-36" class="g1_1" />
<path d="M355.5,498.5l0,-36" class="g1_1" />
<path d="M736.5,498.5l0,-36" class="g1_1" />
<path d="M815.5,498.5l0,-36" class="g1_1" />
<path fill-rule="evenodd" d="M879,498l2,0l0,-36l-2,0l0,36Z" class="g2_1" />
<path fill-rule="evenodd" d="M53,501l3,0l0,-3l-3,0l0,3Z" class="g2_1" />
<path fill-rule="evenodd" d="M56,500l47,0l0,-2l-47,0l0,2Z" class="g2_1" />
<path d="M103.5,501.5l0,-1" class="g1_1" />
<path fill-rule="evenodd" d="M103,500l2,0l0,-2l-2,0l0,2Z" class="g2_1" />
<path fill-rule="evenodd" d="M105,500l53,0l0,-2l-53,0l0,2Z" class="g2_1" />
<path d="M158.5,501.5l0,-1" class="g1_1" />
<path fill-rule="evenodd" d="M158,500l2,0l0,-2l-2,0l0,2Z" class="g2_1" />
<path fill-rule="evenodd" d="M160,500l122,0l0,-2l-122,0l0,2Z" class="g2_1" />
<path d="M282.5,501.5l0,-1" class="g1_1" />
<path fill-rule="evenodd" d="M282,500l2,0l0,-2l-2,0l0,2Z" class="g2_1" />
<path fill-rule="evenodd" d="M284,500l71,0l0,-2l-71,0l0,2Z" class="g2_1" />
<path d="M355.5,501.5l0,-1" class="g1_1" />
<path fill-rule="evenodd" d="M355,500l2,0l0,-2l-2,0l0,2Z" class="g2_1" />
<path fill-rule="evenodd" d="M357,500l379,0l0,-2l-379,0l0,2Z" class="g2_1" />
<path d="M736.5,501.5l0,-1" class="g1_1" />
<path fill-rule="evenodd" d="M736,500l2,0l0,-2l-2,0l0,2Z" class="g2_1" />
<path fill-rule="evenodd" d="M738,500l77,0l0,-2l-77,0l0,2Z" class="g2_1" />
<path d="M815.5,501.5l0,-1" class="g1_1" />
<path fill-rule="evenodd" d="M815,500l2,0l0,-2l-2,0l0,2Z" class="g2_1" />
<path fill-rule="evenodd" d="M817,500l62,0l0,-2l-62,0l0,2Z" class="g2_1" />
<path fill-rule="evenodd" d="M879,501l2,0l0,-3l-2,0l0,3Z" class="g2_1" />
<path fill-rule="evenodd" d="M53,519l3,0l0,-18l-3,0l0,18Z" class="g2_1" />
<path d="M103.5,519.5l0,-18" class="g1_1" />
<path d="M158.5,519.5l0,-18" class="g1_1" />
<path d="M282.5,519.5l0,-18" class="g1_1" />
<path d="M355.5,519.5l0,-18" class="g1_1" />
<path d="M736.5,519.5l0,-18" class="g1_1" />
<path d="M815.5,519.5l0,-18" class="g1_1" />
<path fill-rule="evenodd" d="M879,519l2,0l0,-18l-2,0l0,18Z" class="g2_1" />
<path d="M53.5,520.5l3,0" class="g1_1" />
<path d="M56.5,520.5l47,0" class="g1_1" />
<path d="M103.5,520.5l0,-1" class="g1_1" />
<path d="M104.5,520.5l54,0" class="g1_1" />
<path d="M158.5,520.5l0,-1" class="g1_1" />
<path d="M159.5,520.5l123,0" class="g1_1" />
<path d="M282.5,520.5l0,-1" class="g1_1" />
<path d="M283.5,520.5l72,0" class="g1_1" />
<path d="M355.5,520.5l0,-1" class="g1_1" />
<path d="M356.5,520.5l380,0" class="g1_1" />
<path d="M736.5,520.5l0,-1" class="g1_1" />
<path d="M737.5,520.5l78,0" class="g1_1" />
<path d="M815.5,520.5l0,-1" class="g1_1" />
<path d="M816.5,520.5l63,0" class="g1_1" />
<path d="M879.5,520.5l2,0" class="g1_1" />
<path fill-rule="evenodd" d="M53,538l3,0l0,-18l-3,0l0,18Z" class="g2_1" />
<path d="M103.5,538.5l0,-18" class="g1_1" />
<path d="M158.5,538.5l0,-18" class="g1_1" />
<path d="M282.5,538.5l0,-18" class="g1_1" />
<path d="M355.5,538.5l0,-18" class="g1_1" />
<path d="M736.5,538.5l0,-18" class="g1_1" />
<path d="M815.5,538.5l0,-18" class="g1_1" />
<path fill-rule="evenodd" d="M879,538l2,0l0,-18l-2,0l0,18Z" class="g2_1" />
<path d="M53.5,539.5l3,0" class="g1_1" />
<path d="M56.5,539.5l47,0" class="g1_1" />
<path d="M103.5,539.5l0,-1" class="g1_1" />
<path d="M104.5,539.5l54,0" class="g1_1" />
<path d="M158.5,539.5l0,-1" class="g1_1" />
<path d="M159.5,539.5l123,0" class="g1_1" />
<path d="M282.5,539.5l0,-1" class="g1_1" />
<path d="M283.5,539.5l72,0" class="g1_1" />
<path d="M355.5,539.5l0,-1" class="g1_1" />
<path d="M356.5,539.5l380,0" class="g1_1" />
<path d="M736.5,539.5l0,-1" class="g1_1" />
<path d="M737.5,539.5l78,0" class="g1_1" />
<path d="M815.5,539.5l0,-1" class="g1_1" />
<path d="M816.5,539.5l63,0" class="g1_1" />
<path d="M879.5,539.5l2,0" class="g1_1" />
<path fill-rule="evenodd" d="M53,557l3,0l0,-18l-3,0l0,18Z" class="g2_1" />
<path d="M103.5,557.5l0,-18" class="g1_1" />
<path d="M158.5,557.5l0,-18" class="g1_1" />
<path d="M282.5,557.5l0,-18" class="g1_1" />
<path d="M355.5,557.5l0,-18" class="g1_1" />
<path d="M736.5,557.5l0,-18" class="g1_1" />
<path d="M815.5,557.5l0,-18" class="g1_1" />
<path fill-rule="evenodd" d="M879,557l2,0l0,-18l-2,0l0,18Z" class="g2_1" />
<path d="M53.5,558.5l3,0" class="g1_1" />
<path d="M56.5,558.5l47,0" class="g1_1" />
<path d="M103.5,558.5l0,-1" class="g1_1" />
<path d="M104.5,558.5l54,0" class="g1_1" />
<path d="M158.5,558.5l0,-1" class="g1_1" />
<path d="M159.5,558.5l123,0" class="g1_1" />
<path d="M282.5,558.5l0,-1" class="g1_1" />
<path d="M283.5,558.5l72,0" class="g1_1" />
<path d="M355.5,558.5l0,-1" class="g1_1" />
<path d="M356.5,558.5l380,0" class="g1_1" />
<path d="M736.5,558.5l0,-1" class="g1_1" />
<path d="M737.5,558.5l78,0" class="g1_1" />
<path d="M815.5,558.5l0,-1" class="g1_1" />
<path d="M816.5,558.5l63,0" class="g1_1" />
<path d="M879.5,558.5l2,0" class="g1_1" />
<path fill-rule="evenodd" d="M53,577l3,0l0,-19l-3,0l0,19Z" class="g2_1" />
<path d="M103.5,577.5l0,-19" class="g1_1" />
<path d="M158.5,577.5l0,-19" class="g1_1" />
<path d="M282.5,577.5l0,-19" class="g1_1" />
<path d="M355.5,577.5l0,-19" class="g1_1" />
<path d="M736.5,577.5l0,-19" class="g1_1" />
<path d="M815.5,577.5l0,-19" class="g1_1" />
<path fill-rule="evenodd" d="M879,577l2,0l0,-19l-2,0l0,19Z" class="g2_1" />
<path d="M53.5,578.5l3,0" class="g1_1" />
<path d="M56.5,578.5l47,0" class="g1_1" />
<path d="M103.5,578.5l0,-1" class="g1_1" />
<path d="M104.5,578.5l54,0" class="g1_1" />
<path d="M158.5,578.5l0,-1" class="g1_1" />
<path d="M159.5,578.5l123,0" class="g1_1" />
<path d="M282.5,578.5l0,-1" class="g1_1" />
<path d="M283.5,578.5l72,0" class="g1_1" />
<path d="M355.5,578.5l0,-1" class="g1_1" />
<path d="M356.5,578.5l380,0" class="g1_1" />
<path d="M736.5,578.5l0,-1" class="g1_1" />
<path d="M737.5,578.5l78,0" class="g1_1" />
<path d="M815.5,578.5l0,-1" class="g1_1" />
<path d="M816.5,578.5l63,0" class="g1_1" />
<path d="M879.5,578.5l2,0" class="g1_1" />
<path fill-rule="evenodd" d="M53,596l3,0l0,-18l-3,0l0,18Z" class="g2_1" />
<path d="M103.5,596.5l0,-18" class="g1_1" />
<path d="M158.5,596.5l0,-18" class="g1_1" />
<path d="M282.5,596.5l0,-18" class="g1_1" />
<path d="M355.5,596.5l0,-18" class="g1_1" />
<path d="M736.5,596.5l0,-18" class="g1_1" />
<path d="M815.5,596.5l0,-18" class="g1_1" />
<path fill-rule="evenodd" d="M879,596l2,0l0,-18l-2,0l0,18Z" class="g2_1" />
<path d="M53.5,597.5l3,0" class="g1_1" />
<path d="M56.5,597.5l47,0" class="g1_1" />
<path d="M103.5,597.5l0,-1" class="g1_1" />
<path d="M104.5,597.5l54,0" class="g1_1" />
<path d="M158.5,597.5l0,-1" class="g1_1" />
<path d="M159.5,597.5l123,0" class="g1_1" />
<path d="M282.5,597.5l0,-1" class="g1_1" />
<path d="M283.5,597.5l72,0" class="g1_1" />
<path d="M355.5,597.5l0,-1" class="g1_1" />
<path d="M356.5,597.5l380,0" class="g1_1" />
<path d="M736.5,597.5l0,-1" class="g1_1" />
<path d="M737.5,597.5l78,0" class="g1_1" />
<path d="M815.5,597.5l0,-1" class="g1_1" />
<path d="M816.5,597.5l63,0" class="g1_1" />
<path d="M879.5,597.5l2,0" class="g1_1" />
<path fill-rule="evenodd" d="M53,615l3,0l0,-18l-3,0l0,18Z" class="g2_1" />
<path d="M103.5,615.5l0,-18" class="g1_1" />
<path d="M158.5,615.5l0,-18" class="g1_1" />
<path d="M282.5,615.5l0,-18" class="g1_1" />
<path d="M355.5,615.5l0,-18" class="g1_1" />
<path d="M736.5,615.5l0,-18" class="g1_1" />
<path d="M815.5,615.5l0,-18" class="g1_1" />
<path fill-rule="evenodd" d="M879,615l2,0l0,-18l-2,0l0,18Z" class="g2_1" />
<path d="M53.5,616.5l3,0" class="g1_1" />
<path d="M56.5,616.5l47,0" class="g1_1" />
<path d="M103.5,616.5l0,-1" class="g1_1" />
<path d="M104.5,616.5l54,0" class="g1_1" />
<path d="M158.5,616.5l0,-1" class="g1_1" />
<path d="M159.5,616.5l123,0" class="g1_1" />
<path d="M282.5,616.5l0,-1" class="g1_1" />
<path d="M283.5,616.5l72,0" class="g1_1" />
<path d="M355.5,616.5l0,-1" class="g1_1" />
<path d="M356.5,616.5l380,0" class="g1_1" />
<path d="M736.5,616.5l0,-1" class="g1_1" />
<path d="M737.5,616.5l78,0" class="g1_1" />
<path d="M815.5,616.5l0,-1" class="g1_1" />
<path d="M816.5,616.5l63,0" class="g1_1" />
<path d="M879.5,616.5l2,0" class="g1_1" />
<path fill-rule="evenodd" d="M53,634l3,0l0,-18l-3,0l0,18Z" class="g2_1" />
<path d="M103.5,634.5l0,-18" class="g1_1" />
<path d="M158.5,634.5l0,-18" class="g1_1" />
<path d="M282.5,634.5l0,-18" class="g1_1" />
<path d="M355.5,634.5l0,-18" class="g1_1" />
<path d="M736.5,634.5l0,-18" class="g1_1" />
<path d="M815.5,634.5l0,-18" class="g1_1" />
<path fill-rule="evenodd" d="M879,634l2,0l0,-18l-2,0l0,18Z" class="g2_1" />
<path d="M53.5,635.5l3,0" class="g1_1" />
<path d="M56.5,635.5l47,0" class="g1_1" />
<path d="M103.5,635.5l0,-1" class="g1_1" />
<path d="M104.5,635.5l54,0" class="g1_1" />
<path d="M158.5,635.5l0,-1" class="g1_1" />
<path d="M159.5,635.5l123,0" class="g1_1" />
<path d="M282.5,635.5l0,-1" class="g1_1" />
<path d="M283.5,635.5l72,0" class="g1_1" />
<path d="M355.5,635.5l0,-1" class="g1_1" />
<path d="M356.5,635.5l380,0" class="g1_1" />
<path d="M736.5,635.5l0,-1" class="g1_1" />
<path d="M737.5,635.5l78,0" class="g1_1" />
<path d="M815.5,635.5l0,-1" class="g1_1" />
<path d="M816.5,635.5l63,0" class="g1_1" />
<path d="M879.5,635.5l2,0" class="g1_1" />
<path fill-rule="evenodd" d="M53,654l3,0l0,-19l-3,0l0,19Z" class="g2_1" />
<path d="M103.5,654.5l0,-19" class="g1_1" />
<path d="M158.5,654.5l0,-19" class="g1_1" />
<path d="M282.5,654.5l0,-19" class="g1_1" />
<path d="M355.5,654.5l0,-19" class="g1_1" />
<path d="M736.5,654.5l0,-19" class="g1_1" />
<path d="M815.5,654.5l0,-19" class="g1_1" />
<path fill-rule="evenodd" d="M879,654l2,0l0,-19l-2,0l0,19Z" class="g2_1" />
<path d="M53.5,655.5l3,0" class="g1_1" />
<path d="M56.5,655.5l47,0" class="g1_1" />
<path d="M103.5,655.5l0,-1" class="g1_1" />
<path d="M104.5,655.5l54,0" class="g1_1" />
<path d="M158.5,655.5l0,-1" class="g1_1" />
<path d="M159.5,655.5l123,0" class="g1_1" />
<path d="M282.5,655.5l0,-1" class="g1_1" />
<path d="M283.5,655.5l72,0" class="g1_1" />
<path d="M355.5,655.5l0,-1" class="g1_1" />
<path d="M356.5,655.5l380,0" class="g1_1" />
<path d="M736.5,655.5l0,-1" class="g1_1" />
<path d="M737.5,655.5l78,0" class="g1_1" />
<path d="M815.5,655.5l0,-1" class="g1_1" />
<path d="M816.5,655.5l63,0" class="g1_1" />
<path d="M879.5,655.5l2,0" class="g1_1" />
<path fill-rule="evenodd" d="M53,673l3,0l0,-18l-3,0l0,18Z" class="g2_1" />
<path d="M103.5,673.5l0,-18" class="g1_1" />
<path d="M158.5,673.5l0,-18" class="g1_1" />
<path d="M282.5,673.5l0,-18" class="g1_1" />
<path d="M355.5,673.5l0,-18" class="g1_1" />
<path d="M736.5,673.5l0,-18" class="g1_1" />
<path d="M815.5,673.5l0,-18" class="g1_1" />
<path fill-rule="evenodd" d="M879,673l2,0l0,-18l-2,0l0,18Z" class="g2_1" />
<path d="M53.5,674.5l3,0" class="g1_1" />
<path d="M56.5,674.5l47,0" class="g1_1" />
<path d="M103.5,674.5l0,-1" class="g1_1" />
<path d="M104.5,674.5l54,0" class="g1_1" />
<path d="M158.5,674.5l0,-1" class="g1_1" />
<path d="M159.5,674.5l123,0" class="g1_1" />
<path d="M282.5,674.5l0,-1" class="g1_1" />
<path d="M283.5,674.5l72,0" class="g1_1" />
<path d="M355.5,674.5l0,-1" class="g1_1" />
<path d="M356.5,674.5l380,0" class="g1_1" />
<path d="M736.5,674.5l0,-1" class="g1_1" />
<path d="M737.5,674.5l78,0" class="g1_1" />
<path d="M815.5,674.5l0,-1" class="g1_1" />
<path d="M816.5,674.5l63,0" class="g1_1" />
<path d="M879.5,674.5l2,0" class="g1_1" />
<path fill-rule="evenodd" d="M53,692l3,0l0,-18l-3,0l0,18Z" class="g2_1" />
<path d="M103.5,692.5l0,-18" class="g1_1" />
<path d="M158.5,692.5l0,-18" class="g1_1" />
<path d="M282.5,692.5l0,-18" class="g1_1" />
<path d="M355.5,692.5l0,-18" class="g1_1" />
<path d="M736.5,692.5l0,-18" class="g1_1" />
<path d="M815.5,692.5l0,-18" class="g1_1" />
<path fill-rule="evenodd" d="M879,692l2,0l0,-18l-2,0l0,18Z" class="g2_1" />
<path d="M53.5,693.5l3,0" class="g1_1" />
<path d="M56.5,693.5l47,0" class="g1_1" />
<path d="M103.5,693.5l0,-1" class="g1_1" />
<path d="M104.5,693.5l54,0" class="g1_1" />
<path d="M158.5,693.5l0,-1" class="g1_1" />
<path d="M159.5,693.5l123,0" class="g1_1" />
<path d="M282.5,693.5l0,-1" class="g1_1" />
<path d="M283.5,693.5l72,0" class="g1_1" />
<path d="M355.5,693.5l0,-1" class="g1_1" />
<path d="M356.5,693.5l380,0" class="g1_1" />
<path d="M736.5,693.5l0,-1" class="g1_1" />
<path d="M737.5,693.5l78,0" class="g1_1" />
<path d="M815.5,693.5l0,-1" class="g1_1" />
<path d="M816.5,693.5l63,0" class="g1_1" />
<path d="M879.5,693.5l2,0" class="g1_1" />
<path fill-rule="evenodd" d="M53,711l3,0l0,-18l-3,0l0,18Z" class="g2_1" />
<path d="M103.5,711.5l0,-18" class="g1_1" />
<path d="M158.5,711.5l0,-18" class="g1_1" />
<path d="M282.5,711.5l0,-18" class="g1_1" />
<path d="M355.5,711.5l0,-18" class="g1_1" />
<path d="M736.5,711.5l0,-18" class="g1_1" />
<path d="M815.5,711.5l0,-18" class="g1_1" />
<path fill-rule="evenodd" d="M879,711l2,0l0,-18l-2,0l0,18Z" class="g2_1" />
<path d="M53.5,712.5l3,0" class="g1_1" />
<path d="M56.5,712.5l47,0" class="g1_1" />
<path d="M103.5,712.5l0,-1" class="g1_1" />
<path d="M104.5,712.5l54,0" class="g1_1" />
<path d="M158.5,712.5l0,-1" class="g1_1" />
<path d="M159.5,712.5l123,0" class="g1_1" />
<path d="M282.5,712.5l0,-1" class="g1_1" />
<path d="M283.5,712.5l72,0" class="g1_1" />
<path d="M355.5,712.5l0,-1" class="g1_1" />
<path d="M356.5,712.5l380,0" class="g1_1" />
<path d="M736.5,712.5l0,-1" class="g1_1" />
<path d="M737.5,712.5l78,0" class="g1_1" />
<path d="M815.5,712.5l0,-1" class="g1_1" />
<path d="M816.5,712.5l63,0" class="g1_1" />
<path d="M879.5,712.5l2,0" class="g1_1" />
<path fill-rule="evenodd" d="M53,731l3,0l0,-19l-3,0l0,19Z" class="g2_1" />
<path fill-rule="evenodd" d="M53,733l3,0l0,-2l-3,0l0,2Z" class="g2_1" />
<path fill-rule="evenodd" d="M53,733l3,0l0,-2l-3,0l0,2Z" class="g2_1" />
<path fill-rule="evenodd" d="M56,733l47,0l0,-2l-47,0l0,2Z" class="g2_1" />
<path d="M103.5,731.5l0,-19" class="g1_1" />
<path fill-rule="evenodd" d="M103,733l2,0l0,-2l-2,0l0,2Z" class="g2_1" />
<path fill-rule="evenodd" d="M105,733l53,0l0,-2l-53,0l0,2Z" class="g2_1" />
<path d="M158.5,731.5l0,-19" class="g1_1" />
<path fill-rule="evenodd" d="M158,733l2,0l0,-2l-2,0l0,2Z" class="g2_1" />
<path fill-rule="evenodd" d="M160,733l122,0l0,-2l-122,0l0,2Z" class="g2_1" />
<path d="M282.5,731.5l0,-19" class="g1_1" />
<path fill-rule="evenodd" d="M282,733l2,0l0,-2l-2,0l0,2Z" class="g2_1" />
<path fill-rule="evenodd" d="M284,733l71,0l0,-2l-71,0l0,2Z" class="g2_1" />
<path d="M355.5,731.5l0,-19" class="g1_1" />
<path fill-rule="evenodd" d="M355,733l2,0l0,-2l-2,0l0,2Z" class="g2_1" />
<path fill-rule="evenodd" d="M357,733l379,0l0,-2l-379,0l0,2Z" class="g2_1" />
<path d="M736.5,731.5l0,-19" class="g1_1" />
<path fill-rule="evenodd" d="M736,733l2,0l0,-2l-2,0l0,2Z" class="g2_1" />
<path fill-rule="evenodd" d="M738,733l77,0l0,-2l-77,0l0,2Z" class="g2_1" />
<path d="M815.5,731.5l0,-19" class="g1_1" />
<path fill-rule="evenodd" d="M815,733l2,0l0,-2l-2,0l0,2Z" class="g2_1" />
<path fill-rule="evenodd" d="M817,733l62,0l0,-2l-62,0l0,2Z" class="g2_1" />
<path fill-rule="evenodd" d="M879,731l2,0l0,-19l-2,0l0,19Z" class="g2_1" />
<path fill-rule="evenodd" d="M879,733l2,0l0,-2l-2,0l0,2Z" class="g2_1" />
<path fill-rule="evenodd" d="M879,733l2,0l0,-2l-2,0l0,2Z" class="g2_1" />
<path fill-rule="evenodd" d="M53,753l3,0l0,-2l-3,0l0,2Z" class="g2_1" />
<path fill-rule="evenodd" d="M53,753l3,0l0,-2l-3,0l0,2Z" class="g2_1" />
<path fill-rule="evenodd" d="M56,753l47,0l0,-2l-47,0l0,2Z" class="g2_1" />
<path fill-rule="evenodd" d="M103,753l2,0l0,-2l-2,0l0,2Z" class="g2_1" />
<path fill-rule="evenodd" d="M105,753l53,0l0,-2l-53,0l0,2Z" class="g2_1" />
<path fill-rule="evenodd" d="M158,753l2,0l0,-2l-2,0l0,2Z" class="g2_1" />
<path fill-rule="evenodd" d="M160,753l122,0l0,-2l-122,0l0,2Z" class="g2_1" />
<path fill-rule="evenodd" d="M282,753l2,0l0,-2l-2,0l0,2Z" class="g2_1" />
<path fill-rule="evenodd" d="M284,753l71,0l0,-2l-71,0l0,2Z" class="g2_1" />
<path fill-rule="evenodd" d="M355,753l2,0l0,-2l-2,0l0,2Z" class="g2_1" />
<path fill-rule="evenodd" d="M357,753l379,0l0,-2l-379,0l0,2Z" class="g2_1" />
<path fill-rule="evenodd" d="M736,753l2,0l0,-2l-2,0l0,2Z" class="g2_1" />
<path fill-rule="evenodd" d="M738,753l77,0l0,-2l-77,0l0,2Z" class="g2_1" />
<path fill-rule="evenodd" d="M815,753l2,0l0,-2l-2,0l0,2Z" class="g2_1" />
<path fill-rule="evenodd" d="M817,753l62,0l0,-2l-62,0l0,2Z" class="g2_1" />
<path fill-rule="evenodd" d="M879,753l2,0l0,-2l-2,0l0,2Z" class="g2_1" />
<path fill-rule="evenodd" d="M879,753l2,0l0,-2l-2,0l0,2Z" class="g2_1" />
<path fill-rule="evenodd" d="M53,789l3,0l0,-36l-3,0l0,36Z" class="g2_1" />
<path d="M103.5,789.5l0,-36" class="g1_1" />
<path d="M158.5,789.5l0,-36" class="g1_1" />
<path d="M282.5,789.5l0,-36" class="g1_1" />
<path d="M355.5,789.5l0,-36" class="g1_1" />
<path d="M736.5,789.5l0,-36" class="g1_1" />
<path d="M815.5,789.5l0,-36" class="g1_1" />
<path fill-rule="evenodd" d="M879,789l2,0l0,-36l-2,0l0,36Z" class="g2_1" />
<path fill-rule="evenodd" d="M53,791l3,0l0,-2l-3,0l0,2Z" class="g2_1" />
<path fill-rule="evenodd" d="M56,791l47,0l0,-2l-47,0l0,2Z" class="g2_1" />
<path fill-rule="evenodd" d="M103,791l2,0l0,-2l-2,0l0,2Z" class="g2_1" />
<path fill-rule="evenodd" d="M105,791l53,0l0,-2l-53,0l0,2Z" class="g2_1" />
<path fill-rule="evenodd" d="M158,791l2,0l0,-2l-2,0l0,2Z" class="g2_1" />
<path fill-rule="evenodd" d="M160,791l122,0l0,-2l-122,0l0,2Z" class="g2_1" />
<path fill-rule="evenodd" d="M282,791l2,0l0,-2l-2,0l0,2Z" class="g2_1" />
<path fill-rule="evenodd" d="M284,791l71,0l0,-2l-71,0l0,2Z" class="g2_1" />
<path fill-rule="evenodd" d="M355,791l2,0l0,-2l-2,0l0,2Z" class="g2_1" />
<path fill-rule="evenodd" d="M357,791l379,0l0,-2l-379,0l0,2Z" class="g2_1" />
<path fill-rule="evenodd" d="M736,791l2,0l0,-2l-2,0l0,2Z" class="g2_1" />
<path fill-rule="evenodd" d="M738,791l77,0l0,-2l-77,0l0,2Z" class="g2_1" />
<path fill-rule="evenodd" d="M815,791l2,0l0,-2l-2,0l0,2Z" class="g2_1" />
<path fill-rule="evenodd" d="M817,791l62,0l0,-2l-62,0l0,2Z" class="g2_1" />
<path fill-rule="evenodd" d="M879,791l2,0l0,-2l-2,0l0,2Z" class="g2_1" />
<path fill-rule="evenodd" d="M53,810l3,0l0,-19l-3,0l0,19Z" class="g2_1" />
<path d="M103.5,810.5l0,-19" class="g1_1" />
<path d="M158.5,810.5l0,-19" class="g1_1" />
<path d="M282.5,810.5l0,-19" class="g1_1" />
<path d="M355.5,810.5l0,-19" class="g1_1" />
<path d="M736.5,810.5l0,-19" class="g1_1" />
<path d="M815.5,810.5l0,-19" class="g1_1" />
<path fill-rule="evenodd" d="M879,810l2,0l0,-19l-2,0l0,19Z" class="g2_1" />
<path d="M53.5,811.5l3,0" class="g1_1" />
<path d="M56.5,811.5l47,0" class="g1_1" />
<path d="M103.5,811.5l0,-1" class="g1_1" />
<path d="M104.5,811.5l54,0" class="g1_1" />
<path d="M158.5,811.5l0,-1" class="g1_1" />
<path d="M159.5,811.5l123,0" class="g1_1" />
<path d="M282.5,811.5l0,-1" class="g1_1" />
<path d="M283.5,811.5l72,0" class="g1_1" />
<path d="M355.5,811.5l0,-1" class="g1_1" />
<path d="M356.5,811.5l380,0" class="g1_1" />
<path d="M736.5,811.5l0,-1" class="g1_1" />
<path d="M737.5,811.5l78,0" class="g1_1" />
<path d="M815.5,811.5l0,-1" class="g1_1" />
<path d="M816.5,811.5l63,0" class="g1_1" />
<path d="M879.5,811.5l2,0" class="g1_1" />
<path fill-rule="evenodd" d="M53,829l3,0l0,-18l-3,0l0,18Z" class="g2_1" />
<path d="M103.5,829.5l0,-18" class="g1_1" />
<path d="M158.5,829.5l0,-18" class="g1_1" />
<path d="M282.5,829.5l0,-18" class="g1_1" />
<path d="M355.5,829.5l0,-18" class="g1_1" />
<path d="M736.5,829.5l0,-18" class="g1_1" />
<path d="M815.5,829.5l0,-18" class="g1_1" />
<path fill-rule="evenodd" d="M879,829l2,0l0,-18l-2,0l0,18Z" class="g2_1" />
<path d="M53.5,830.5l3,0" class="g1_1" />
<path d="M56.5,830.5l47,0" class="g1_1" />
<path d="M103.5,830.5l0,-1" class="g1_1" />
<path d="M104.5,830.5l54,0" class="g1_1" />
<path d="M158.5,830.5l0,-1" class="g1_1" />
<path d="M159.5,830.5l123,0" class="g1_1" />
<path d="M282.5,830.5l0,-1" class="g1_1" />
<path d="M283.5,830.5l72,0" class="g1_1" />
<path d="M355.5,830.5l0,-1" class="g1_1" />
<path d="M356.5,830.5l380,0" class="g1_1" />
<path d="M736.5,830.5l0,-1" class="g1_1" />
<path d="M737.5,830.5l78,0" class="g1_1" />
<path d="M815.5,830.5l0,-1" class="g1_1" />
<path d="M816.5,830.5l63,0" class="g1_1" />
<path d="M879.5,830.5l2,0" class="g1_1" />
<path fill-rule="evenodd" d="M53,848l3,0l0,-18l-3,0l0,18Z" class="g2_1" />
<path d="M103.5,848.5l0,-18" class="g1_1" />
<path d="M158.5,848.5l0,-18" class="g1_1" />
<path d="M282.5,848.5l0,-18" class="g1_1" />
<path d="M355.5,848.5l0,-18" class="g1_1" />
<path d="M736.5,848.5l0,-18" class="g1_1" />
<path d="M815.5,848.5l0,-18" class="g1_1" />
<path fill-rule="evenodd" d="M879,848l2,0l0,-18l-2,0l0,18Z" class="g2_1" />
<path d="M53.5,849.5l3,0" class="g1_1" />
<path d="M56.5,849.5l47,0" class="g1_1" />
<path d="M103.5,849.5l0,-1" class="g1_1" />
<path d="M104.5,849.5l54,0" class="g1_1" />
<path d="M158.5,849.5l0,-1" class="g1_1" />
<path d="M159.5,849.5l123,0" class="g1_1" />
<path d="M282.5,849.5l0,-1" class="g1_1" />
<path d="M283.5,849.5l72,0" class="g1_1" />
<path d="M355.5,849.5l0,-1" class="g1_1" />
<path d="M356.5,849.5l380,0" class="g1_1" />
<path d="M736.5,849.5l0,-1" class="g1_1" />
<path d="M737.5,849.5l78,0" class="g1_1" />
<path d="M815.5,849.5l0,-1" class="g1_1" />
<path d="M816.5,849.5l63,0" class="g1_1" />
<path d="M879.5,849.5l2,0" class="g1_1" />
<path fill-rule="evenodd" d="M53,867l3,0l0,-18l-3,0l0,18Z" class="g2_1" />
<path d="M103.5,867.5l0,-18" class="g1_1" />
<path d="M158.5,867.5l0,-18" class="g1_1" />
<path d="M282.5,867.5l0,-18" class="g1_1" />
<path d="M355.5,867.5l0,-18" class="g1_1" />
<path d="M736.5,867.5l0,-18" class="g1_1" />
<path d="M815.5,867.5l0,-18" class="g1_1" />
<path fill-rule="evenodd" d="M879,867l2,0l0,-18l-2,0l0,18Z" class="g2_1" />
<path d="M53.5,868.5l3,0" class="g1_1" />
<path d="M56.5,868.5l47,0" class="g1_1" />
<path d="M103.5,868.5l0,-1" class="g1_1" />
<path d="M104.5,868.5l54,0" class="g1_1" />
<path d="M158.5,868.5l0,-1" class="g1_1" />
<path d="M159.5,868.5l123,0" class="g1_1" />
<path d="M282.5,868.5l0,-1" class="g1_1" />
<path d="M283.5,868.5l72,0" class="g1_1" />
<path d="M355.5,868.5l0,-1" class="g1_1" />
<path d="M356.5,868.5l380,0" class="g1_1" />
<path d="M736.5,868.5l0,-1" class="g1_1" />
<path d="M737.5,868.5l78,0" class="g1_1" />
<path d="M815.5,868.5l0,-1" class="g1_1" />
<path d="M816.5,868.5l63,0" class="g1_1" />
<path d="M879.5,868.5l2,0" class="g1_1" />
<path fill-rule="evenodd" d="M53,887l3,0l0,-19l-3,0l0,19Z" class="g2_1" />
<path fill-rule="evenodd" d="M53,889l3,0l0,-2l-3,0l0,2Z" class="g2_1" />
<path fill-rule="evenodd" d="M53,889l3,0l0,-2l-3,0l0,2Z" class="g2_1" />
<path fill-rule="evenodd" d="M56,889l47,0l0,-2l-47,0l0,2Z" class="g2_1" />
<path d="M103.5,887.5l0,-19" class="g1_1" />
<path fill-rule="evenodd" d="M103,889l2,0l0,-2l-2,0l0,2Z" class="g2_1" />
<path fill-rule="evenodd" d="M105,889l53,0l0,-2l-53,0l0,2Z" class="g2_1" />
<path d="M158.5,887.5l0,-19" class="g1_1" />
<path fill-rule="evenodd" d="M158,889l2,0l0,-2l-2,0l0,2Z" class="g2_1" />
<path fill-rule="evenodd" d="M160,889l122,0l0,-2l-122,0l0,2Z" class="g2_1" />
<path d="M282.5,887.5l0,-19" class="g1_1" />
<path fill-rule="evenodd" d="M282,889l2,0l0,-2l-2,0l0,2Z" class="g2_1" />
<path fill-rule="evenodd" d="M284,889l71,0l0,-2l-71,0l0,2Z" class="g2_1" />
<path d="M355.5,887.5l0,-19" class="g1_1" />
<path fill-rule="evenodd" d="M355,889l2,0l0,-2l-2,0l0,2Z" class="g2_1" />
<path fill-rule="evenodd" d="M357,889l379,0l0,-2l-379,0l0,2Z" class="g2_1" />
<path d="M736.5,887.5l0,-19" class="g1_1" />
<path fill-rule="evenodd" d="M736,889l2,0l0,-2l-2,0l0,2Z" class="g2_1" />
<path fill-rule="evenodd" d="M738,889l77,0l0,-2l-77,0l0,2Z" class="g2_1" />
<path d="M815.5,887.5l0,-19" class="g1_1" />
<path fill-rule="evenodd" d="M815,889l2,0l0,-2l-2,0l0,2Z" class="g2_1" />
<path fill-rule="evenodd" d="M817,889l62,0l0,-2l-62,0l0,2Z" class="g2_1" />
<path fill-rule="evenodd" d="M879,887l2,0l0,-19l-2,0l0,19Z" class="g2_1" />
<path fill-rule="evenodd" d="M879,889l2,0l0,-2l-2,0l0,2Z" class="g2_1" />
<path fill-rule="evenodd" d="M879,889l2,0l0,-2l-2,0l0,2Z" class="g2_1" />
<path fill-rule="evenodd" d="M53,909l3,0l0,-2l-3,0l0,2Z" class="g2_1" />
<path fill-rule="evenodd" d="M53,909l3,0l0,-2l-3,0l0,2Z" class="g2_1" />
<path fill-rule="evenodd" d="M56,909l47,0l0,-2l-47,0l0,2Z" class="g2_1" />
<path fill-rule="evenodd" d="M103,909l2,0l0,-2l-2,0l0,2Z" class="g2_1" />
<path fill-rule="evenodd" d="M105,909l53,0l0,-2l-53,0l0,2Z" class="g2_1" />
<path fill-rule="evenodd" d="M158,909l2,0l0,-2l-2,0l0,2Z" class="g2_1" />
<path fill-rule="evenodd" d="M160,909l122,0l0,-2l-122,0l0,2Z" class="g2_1" />
<path fill-rule="evenodd" d="M282,909l2,0l0,-2l-2,0l0,2Z" class="g2_1" />
<path fill-rule="evenodd" d="M284,909l71,0l0,-2l-71,0l0,2Z" class="g2_1" />
<path fill-rule="evenodd" d="M355,909l2,0l0,-2l-2,0l0,2Z" class="g2_1" />
<path fill-rule="evenodd" d="M357,909l379,0l0,-2l-379,0l0,2Z" class="g2_1" />
<path fill-rule="evenodd" d="M736,909l2,0l0,-2l-2,0l0,2Z" class="g2_1" />
<path fill-rule="evenodd" d="M738,909l77,0l0,-2l-77,0l0,2Z" class="g2_1" />
<path fill-rule="evenodd" d="M815,909l2,0l0,-2l-2,0l0,2Z" class="g2_1" />
<path fill-rule="evenodd" d="M817,909l62,0l0,-2l-62,0l0,2Z" class="g2_1" />
<path fill-rule="evenodd" d="M879,909l2,0l0,-2l-2,0l0,2Z" class="g2_1" />
<path fill-rule="evenodd" d="M879,909l2,0l0,-2l-2,0l0,2Z" class="g2_1" />
<path fill-rule="evenodd" d="M53,945l3,0l0,-36l-3,0l0,36Z" class="g2_1" />
<path d="M103.5,945.5l0,-36" class="g1_1" />
<path d="M158.5,945.5l0,-36" class="g1_1" />
<path d="M282.5,945.5l0,-36" class="g1_1" />
<path d="M355.5,945.5l0,-36" class="g1_1" />
<path d="M736.5,945.5l0,-36" class="g1_1" />
<path d="M815.5,945.5l0,-36" class="g1_1" />
<path fill-rule="evenodd" d="M879,945l2,0l0,-36l-2,0l0,36Z" class="g2_1" />
<path fill-rule="evenodd" d="M53,947l3,0l0,-2l-3,0l0,2Z" class="g2_1" />
<path fill-rule="evenodd" d="M56,947l47,0l0,-2l-47,0l0,2Z" class="g2_1" />
<path fill-rule="evenodd" d="M103,947l2,0l0,-2l-2,0l0,2Z" class="g2_1" />
<path fill-rule="evenodd" d="M105,947l53,0l0,-2l-53,0l0,2Z" class="g2_1" />
<path fill-rule="evenodd" d="M158,947l2,0l0,-2l-2,0l0,2Z" class="g2_1" />
<path fill-rule="evenodd" d="M160,947l122,0l0,-2l-122,0l0,2Z" class="g2_1" />
<path fill-rule="evenodd" d="M282,947l2,0l0,-2l-2,0l0,2Z" class="g2_1" />
<path fill-rule="evenodd" d="M284,947l71,0l0,-2l-71,0l0,2Z" class="g2_1" />
<path fill-rule="evenodd" d="M355,947l2,0l0,-2l-2,0l0,2Z" class="g2_1" />
<path fill-rule="evenodd" d="M357,947l379,0l0,-2l-379,0l0,2Z" class="g2_1" />
<path fill-rule="evenodd" d="M736,947l2,0l0,-2l-2,0l0,2Z" class="g2_1" />
<path fill-rule="evenodd" d="M738,947l77,0l0,-2l-77,0l0,2Z" class="g2_1" />
<path fill-rule="evenodd" d="M815,947l2,0l0,-2l-2,0l0,2Z" class="g2_1" />
<path fill-rule="evenodd" d="M817,947l62,0l0,-2l-62,0l0,2Z" class="g2_1" />
<path fill-rule="evenodd" d="M879,947l2,0l0,-2l-2,0l0,2Z" class="g2_1" />
<path fill-rule="evenodd" d="M53,966l3,0l0,-19l-3,0l0,19Z" class="g2_1" />
<path d="M103.5,966.5l0,-19" class="g1_1" />
<path d="M158.5,966.5l0,-19" class="g1_1" />
<path d="M282.5,966.5l0,-19" class="g1_1" />
<path d="M355.5,966.5l0,-19" class="g1_1" />
<path d="M736.5,966.5l0,-19" class="g1_1" />
<path d="M815.5,966.5l0,-19" class="g1_1" />
<path fill-rule="evenodd" d="M879,966l2,0l0,-19l-2,0l0,19Z" class="g2_1" />
<path d="M53.5,967.5l3,0" class="g1_1" />
<path d="M56.5,967.5l47,0" class="g1_1" />
<path d="M103.5,967.5l0,-1" class="g1_1" />
<path d="M104.5,967.5l54,0" class="g1_1" />
<path d="M158.5,967.5l0,-1" class="g1_1" />
<path d="M159.5,967.5l123,0" class="g1_1" />
<path d="M282.5,967.5l0,-1" class="g1_1" />
<path d="M283.5,967.5l72,0" class="g1_1" />
<path d="M355.5,967.5l0,-1" class="g1_1" />
<path d="M356.5,967.5l380,0" class="g1_1" />
<path d="M736.5,967.5l0,-1" class="g1_1" />
<path d="M737.5,967.5l78,0" class="g1_1" />
<path d="M815.5,967.5l0,-1" class="g1_1" />
<path d="M816.5,967.5l63,0" class="g1_1" />
<path d="M879.5,967.5l2,0" class="g1_1" />
<path fill-rule="evenodd" d="M53,985l3,0l0,-18l-3,0l0,18Z" class="g2_1" />
<path d="M103.5,985.5l0,-18" class="g1_1" />
<path d="M158.5,985.5l0,-18" class="g1_1" />
<path d="M282.5,985.5l0,-18" class="g1_1" />
<path d="M355.5,985.5l0,-18" class="g1_1" />
<path d="M736.5,985.5l0,-18" class="g1_1" />
<path d="M815.5,985.5l0,-18" class="g1_1" />
<path fill-rule="evenodd" d="M879,985l2,0l0,-18l-2,0l0,18Z" class="g2_1" />
<path d="M55.5,1012.5l385,0" class="g1_1" />
<path d="M53.5,986.5l50,0" class="g1_1" />
<path d="M103.5,986.5l0,-1" class="g1_1" />
<path d="M104.5,986.5l54,0" class="g1_1" />
<path d="M158.5,986.5l0,-1" class="g1_1" />
<path d="M159.5,986.5l123,0" class="g1_1" />
<path d="M282.5,986.5l0,-1" class="g1_1" />
<path d="M283.5,986.5l72,0" class="g1_1" />
<path d="M355.5,986.5l0,-1" class="g1_1" />
<path d="M356.5,986.5l111,0" class="g1_1" />
<path d="M467.5,986.5l0,-1" class="g1_1" />
<path d="M468.5,986.5l268,0" class="g1_1" />
<path d="M736.5,986.5l0,-1" class="g1_1" />
<path d="M737.5,986.5l78,0" class="g1_1" />
<path d="M815.5,986.5l0,-1" class="g1_1" />
<path d="M816.5,986.5l63,0" class="g1_1" />
<path d="M879.5,986.5l2,0" class="g1_1" />
<path d="M55.5,1050.5l385,0" class="g1_1" />
<path d="M475.5,1050.5l385,0" class="g1_1" />
<path d="M55.5,1089.5l385,0" class="g1_1" />
<path d="M475.5,1089.5l385,0" class="g1_1" />
</svg>